<svg width="52" height="52" viewBox="0 0 52 52" fill="none" xmlns="http://www.w3.org/2000/svg">
<rect width="52" height="52" rx="26" fill="#35536B"/>
<path d="M36.5 34.1666V35.3333H15.5V34.1666L17.8333 31.8333V24.8333C17.8333 21.2166 20.2017 18.0316 23.6667 17.0049V16.6666C23.6667 16.0477 23.9125 15.4543 24.3501 15.0167C24.7877 14.5791 25.3812 14.3333 26 14.3333C26.6188 14.3333 27.2123 14.5791 27.6499 15.0167C28.0875 15.4543 28.3333 16.0477 28.3333 16.6666V17.0049C31.7983 18.0316 34.1667 21.2166 34.1667 24.8333V31.8333L36.5 34.1666ZM28.3333 36.4999C28.3333 37.1188 28.0875 37.7122 27.6499 38.1498C27.2123 38.5874 26.6188 38.8333 26 38.8333C25.3812 38.8333 24.7877 38.5874 24.3501 38.1498C23.9125 37.7122 23.6667 37.1188 23.6667 36.4999" fill="white"/>
</svg>
