<svg width="18.000000" height="18.000000" viewBox="0 0 18 18" fill="none" xmlns="http://www.w3.org/2000/svg" xmlns:xlink="http://www.w3.org/1999/xlink">
	<desc>
			Created with Pixso.
	</desc>
	<defs/>
	<path id="Vector" d="M16 0L2 0C0.88 0 0 0.89 0 2L0 6L2 6L2 2L16 2L16 16L2 16L2 12L0 12L0 16C0 16.53 0.21 17.03 0.58 17.41C0.96 17.78 1.46 18 2 18L16 18C16.53 18 17.03 17.78 17.41 17.41C17.78 17.03 18 16.53 18 16L18 2C18 1.46 17.78 0.96 17.41 0.58C17.03 0.21 16.53 0 16 0ZM7.08 12.58L8.5 14L13.5 9L8.5 4L7.08 5.41L9.66 8L0 8L0 10L9.66 10L7.08 12.58Z" fill="#FFFFFF" fill-opacity="1.000000" fill-rule="nonzero"/>
</svg>
