<svg width="36" height="36" viewBox="0 0 36 36" fill="none" xmlns="http://www.w3.org/2000/svg">
<rect width="36" height="36" rx="18" fill="white"/>
<path d="M15.5175 7.24914C15.1007 7.25204 14.6892 7.31129 14.2897 7.43068C13.8935 7.54928 13.5284 7.72117 13.1971 7.94007C13.5591 8.85985 14.4831 10.0274 15.5535 11.0241C16.6711 12.0648 17.9526 12.949 18.7801 13.3478L18.7898 13.3525L18.7994 13.3573C19.5599 13.748 20.0983 14.3629 20.409 15.0413C20.6092 15.478 20.7258 15.9355 20.7937 16.4006C21.4031 15.9253 22.0455 15.5447 22.6986 15.2685C22.6489 14.4102 22.4601 13.5102 22.1162 12.609C21.395 10.719 20.1352 9.19745 18.7086 8.26951C17.6832 7.60257 16.5829 7.24173 15.5175 7.24914ZM11.9359 9.23218C11.6962 9.60409 11.4997 10.0187 11.3504 10.4691C10.8516 11.9725 10.8921 13.8585 11.6133 15.7486C12.0498 16.8925 12.6838 17.9011 13.4325 18.7252C14.1702 18.9459 14.8997 19.2868 15.585 19.7495C16.1145 20.107 16.5864 20.5162 16.9953 20.9613C17.1287 20.9937 17.2622 21.0214 17.3956 21.0431C17.6497 20.3804 17.9794 19.7211 18.3858 19.0814C18.6317 18.6941 18.9011 18.3222 19.1925 17.9678C19.1959 17.7244 19.1939 17.4886 19.1823 17.2635C19.1509 16.6546 19.0534 16.1338 18.8748 15.7441C18.6963 15.3543 18.4637 15.0821 18.0283 14.8584L18.0475 14.8679C16.9751 14.3511 15.6359 13.4067 14.4034 12.259C13.4237 11.3469 12.5149 10.3251 11.9359 9.23218ZM25.0493 15.5943C24.4162 15.5994 23.7464 15.7465 23.0687 16.0278C21.6231 16.6279 20.1716 17.8442 19.0979 19.5339C18.5487 20.3984 18.154 21.2997 17.9086 22.1834C18.8719 23.7996 19.1085 25.656 18.4146 27.2151C18.5267 27.3753 18.6519 27.526 18.7889 27.6657C19.8035 26.7903 20.9727 26.0652 21.8037 25.3206C22.2579 24.9137 22.6019 24.5109 22.793 24.1272C22.9841 23.7434 23.0498 23.3914 22.9505 22.912L22.9447 22.8842L22.9408 22.856C22.5633 20.1235 23.2256 18.5177 24.1907 17.5352C24.9667 16.7454 25.7392 16.3294 26.2722 15.7802C25.8871 15.6522 25.4766 15.5908 25.0493 15.5943ZM27.7093 16.7171C26.9297 17.686 25.9687 18.1335 25.3944 18.718C24.7346 19.3896 24.2791 20.1981 24.6109 22.6135C24.7707 23.4347 24.6303 24.2235 24.3035 24.8795C23.9708 25.5474 23.4734 26.0904 22.9298 26.5774C22.1042 27.3172 21.1519 27.9507 20.3552 28.5687C21.2587 28.8034 22.2874 28.6898 23.3348 28.2549C24.7804 27.6549 26.232 26.4385 27.3056 24.7488C28.3792 23.0591 28.8637 21.2282 28.7928 19.6646C28.7386 18.4689 28.3693 17.4443 27.7093 16.7171L27.7093 16.7171ZM24.6109 22.6135C24.6081 22.5987 24.6059 22.5841 24.6028 22.5693L24.6125 22.6252C24.6121 22.6213 24.6115 22.6174 24.611 22.6135H24.6109ZM11.4755 19.2655C10.6138 19.2577 9.80203 19.4467 9.11882 19.8189C9.12351 19.8191 9.12759 19.8194 9.13228 19.8196C9.53681 19.8339 10.0447 19.7861 10.6294 19.866C11.214 19.9458 11.899 20.2113 12.4178 20.7984C12.9367 21.3855 13.2925 22.2178 13.5404 23.4131L13.5462 23.441L13.5501 23.4692C13.665 24.3032 14.1963 24.7857 15.1173 25.2374C15.9031 25.6229 16.912 25.8981 17.8696 26.1783C18.2985 24.2565 17.2809 21.9124 15.1129 20.4488C13.9439 19.6596 12.6626 19.2762 11.4756 19.2655H11.4755ZM7.67493 21.2083C6.4904 23.2488 7.44037 26.2429 10.0237 27.987C12.5654 29.7031 15.6386 29.4999 17.1177 27.7198C16.2535 27.4735 15.2738 27.1939 14.3741 26.7526C13.214 26.1835 12.1082 25.2273 11.8851 23.7422C11.6726 22.725 11.3887 22.1822 11.1533 21.9159C10.9171 21.6484 10.7329 21.5834 10.401 21.5381C10.0691 21.4928 9.61303 21.5252 9.07289 21.5061C8.65195 21.4913 8.15807 21.4309 7.67493 21.2084V21.2083ZM11.8851 23.7421C11.8861 23.7468 11.8872 23.7512 11.8882 23.7559L11.8784 23.6998C11.8804 23.7141 11.883 23.7279 11.8852 23.7422L11.8851 23.7421Z" fill="#F47356"/>
</svg>
