<svg width="36" height="36" viewBox="0 0 36 36" fill="none" xmlns="http://www.w3.org/2000/svg">
<rect width="36" height="36" rx="18" fill="white"/>
<path d="M18 12C19.1046 12 20 11.1046 20 10C20 8.89543 19.1046 8 18 8C16.8954 8 16 8.89543 16 10C16 11.1046 16.8954 12 18 12Z" stroke="#35536B" stroke-width="2" stroke-linecap="round" stroke-linejoin="round"/>
<path d="M16.2 9.2002C11.5 10.0002 8 14.1002 8 19.0002C8 19.5306 8.21071 20.0393 8.58579 20.4144C8.96086 20.7895 9.46957 21.0002 10 21.0002C10.5304 21.0002 11.0391 20.7895 11.4142 20.4144C11.7893 20.0393 12 19.5306 12 19.0002V18.0002C12 17.4698 12.2107 16.9611 12.5858 16.586C12.9609 16.2109 13.4696 16.0002 14 16.0002C14.5304 16.0002 15.0391 16.2109 15.4142 16.586C15.7893 16.9611 16 17.4698 16 18.0002V22.0002C16 22.5306 16.2107 23.0393 16.5858 23.4144C16.9609 23.7895 17.4696 24.0002 18 24.0002C18.5304 24.0002 19.0391 23.7895 19.4142 23.4144C19.7893 23.0393 20 22.5306 20 22.0002V18.0002C20 17.4698 20.2107 16.9611 20.5858 16.586C20.9609 16.2109 21.4696 16.0002 22 16.0002C22.5304 16.0002 23.0391 16.2109 23.4142 16.586C23.7893 16.9611 24 17.4698 24 18.0002V19.0002C24 19.5306 24.2107 20.0393 24.5858 20.4144C24.9609 20.7895 25.4696 21.0002 26 21.0002C26.5304 21.0002 27.0391 20.7895 27.4142 20.4144C27.7893 20.0393 28 19.5306 28 19.0002C28 14.1002 24.5 10.0002 19.8 9.2002" stroke="#35536B" stroke-width="2" stroke-linecap="round" stroke-linejoin="round"/>
<path d="M9.19995 20.7998C9.63166 22.8133 10.7408 24.6178 12.3423 25.9123C13.9437 27.2068 15.9407 27.913 18 27.913C20.0592 27.913 22.0562 27.2068 23.6576 25.9123C25.2591 24.6178 26.3682 22.8133 26.7999 20.7998" stroke="#35536B" stroke-width="2" stroke-linecap="round" stroke-linejoin="round"/>
</svg>
