<svg width="36" height="36" viewBox="0 0 36 36" fill="none" xmlns="http://www.w3.org/2000/svg">
<rect width="36" height="36" rx="18" fill="white"/>
<path d="M26.1 22.95C26.3833 23.1 26.6333 23.0667 26.85 22.85C27.0667 22.6333 27.1 22.3833 26.95 22.1L25.5 19.4L24.45 22.1L26.1 22.95ZM21.1 22H22.3L24.7 16.05C24.75 15.9167 24.7377 15.8043 24.663 15.713C24.5883 15.6217 24.5007 15.5507 24.4 15.5L22.4 14.7C22.25 14.65 22.1043 14.6667 21.963 14.75C21.8217 14.8333 21.734 14.95 21.7 15.1L21.1 22ZM13.7 22H14.9L14.3 15.1C14.2667 14.9167 14.1793 14.7917 14.038 14.725C13.8967 14.6583 13.7507 14.65 13.6 14.7L11.6 15.5C11.4667 15.55 11.371 15.621 11.313 15.713C11.255 15.805 11.2507 15.9173 11.3 16.05L13.7 22ZM9.9 22.95L11.55 22.1L10.5 19.4L9.05 22.1C8.9 22.3833 8.93333 22.6333 9.15 22.85C9.36667 23.0667 9.61667 23.1 9.9 22.95ZM16.9 22H19.1L19.85 13.55C19.8833 13.4 19.846 13.2707 19.738 13.162C19.63 13.0533 19.5007 12.9993 19.35 13H16.65C16.5167 13 16.3957 13.0543 16.287 13.163C16.1783 13.2717 16.1327 13.4007 16.15 13.55L16.9 22ZM9.45 25C8.75 25 8.16667 24.7373 7.7 24.212C7.23333 23.6867 7 23.066 7 22.35C7 22.15 7.02933 21.9543 7.088 21.763C7.14667 21.5717 7.21733 21.384 7.3 21.2L9.5 17C9.26667 16.3333 9.275 15.675 9.525 15.025C9.775 14.375 10.2167 13.9167 10.85 13.65L12.85 12.85C13.0833 12.7667 13.3167 12.7083 13.55 12.675C13.7833 12.6417 14.0167 12.65 14.25 12.7C14.4833 12.2167 14.8083 11.8127 15.225 11.488C15.6417 11.1633 16.1167 11.0007 16.65 11H19.35C19.8833 11 20.3583 11.1627 20.775 11.488C21.1917 11.8133 21.5167 12.2173 21.75 12.7C21.9833 12.6667 22.2167 12.6627 22.45 12.688C22.6833 12.7133 22.9167 12.7673 23.15 12.85L25.15 13.65C25.8167 13.9167 26.2833 14.375 26.55 15.025C26.8167 15.675 26.8 16.3167 26.5 16.95L28.7 21.15C28.8 21.3333 28.875 21.525 28.925 21.725C28.975 21.925 29 22.1333 29 22.35C29 23.1 28.7457 23.7293 28.237 24.238C27.7283 24.7467 27.0993 25.0007 26.35 25C26.1667 25 25.9833 24.9793 25.8 24.938C25.6167 24.8967 25.4333 24.834 25.25 24.75L23.7 24H12.25L10.85 24.75C10.6333 24.8667 10.4043 24.9377 10.163 24.963C9.92167 24.9883 9.684 25.0007 9.45 25Z" fill="#35536B"/>
</svg>
