<svg width="134.651367" height="26.079956" viewBox="0 0 134.651 26.08" fill="none" xmlns="http://www.w3.org/2000/svg" xmlns:xlink="http://www.w3.org/1999/xlink">
	<desc>
			Created with Pixso.
	</desc>
	<defs/>
	<path id="neocafe" d="M-6.13928e-05 26.08L-6.13928e-05 13.6C-6.13928e-05 11.424 0.778605 9.55729 2.33594 7.99996C3.89327 6.44263 5.75994 5.66396 7.93594 5.66396C10.1333 5.66396 11.9999 6.44263 13.5359 7.99996C15.0933 9.53596 15.8719 11.4026 15.8719 13.6L15.8719 26.08L12.4799 26.08L12.4799 13.6C12.4799 12.3626 12.0319 11.296 11.1359 10.4C10.2399 9.50396 9.17327 9.05596 7.93594 9.05596C6.69861 9.05596 5.63194 9.50396 4.73594 10.4C3.83994 11.296 3.39194 12.3626 3.39194 13.6L3.39194 26.08L-6.13928e-05 26.08ZM20.8114 8.67196C22.8168 6.66662 25.2274 5.66396 28.0434 5.66396C30.8594 5.66396 33.2594 6.66662 35.2434 8.67196C37.2488 10.656 38.2514 13.056 38.2514 15.872C38.2514 16.4053 38.1981 16.9706 38.0914 17.568L21.4514 17.568C21.8354 19.0613 22.6354 20.288 23.8514 21.248C25.0674 22.1866 26.4648 22.656 28.0434 22.656C30.0274 22.656 31.6808 21.9413 33.0034 20.512L37.1314 20.512C36.2781 22.1973 35.0301 23.552 33.3874 24.576C31.7661 25.5786 29.9848 26.08 28.0434 26.08C25.2274 26.08 22.8168 25.088 20.8114 23.104C18.8274 21.0986 17.8354 18.688 17.8354 15.872C17.8354 13.056 18.8274 10.656 20.8114 8.67196ZM21.4514 14.176L34.6354 14.176C34.2728 12.6826 33.4728 11.456 32.2354 10.496C31.0194 9.53596 29.6221 9.05596 28.0434 9.05596C26.4648 9.05596 25.0568 9.53596 23.8194 10.496C22.6034 11.456 21.8141 12.6826 21.4514 14.176ZM42.0829 8.67196C44.0883 6.66662 46.4989 5.66396 49.3149 5.66396C52.1309 5.66396 54.5309 6.66662 56.5149 8.67196C58.5203 10.656 59.5229 13.056 59.5229 15.872C59.5229 18.688 58.5203 21.0986 56.5149 23.104C54.5309 25.088 52.1309 26.08 49.3149 26.08C46.4989 26.08 44.0883 25.088 42.0829 23.104C40.0989 21.0986 39.1069 18.688 39.1069 15.872C39.1069 13.056 40.0989 10.656 42.0829 8.67196ZM54.1149 11.072C52.7923 9.72796 51.1923 9.05596 49.3149 9.05596C47.4376 9.05596 45.8269 9.72796 44.4829 11.072C43.1603 12.3946 42.4989 13.9946 42.4989 15.872C42.4989 17.7493 43.1603 19.3493 44.4829 20.672C45.8269 21.9946 47.4376 22.656 49.3149 22.656C51.1923 22.656 52.7923 21.9946 54.1149 20.672C55.4589 19.3493 56.1309 17.7493 56.1309 15.872C56.1309 13.9946 55.4589 12.3946 54.1149 11.072Z" fill="#2A3440" fill-opacity="1.000000" fill-rule="evenodd"/>
	<path id="neocafe" d="M71.0277 5.66396C72.9264 5.66396 74.6757 6.15462 76.2757 7.13596C77.897 8.09596 79.145 9.37596 80.0197 10.976L75.7957 10.976C74.473 9.69596 72.8837 9.05596 71.0277 9.05596C69.1504 9.05596 67.5504 9.72796 66.2277 11.072C64.905 12.3946 64.2437 13.9946 64.2437 15.872C64.2437 17.7493 64.905 19.3493 66.2277 20.672C67.5504 21.9946 69.1504 22.656 71.0277 22.656C72.137 22.656 73.1717 22.4106 74.1317 21.92C75.0917 21.4293 75.881 20.7573 76.4997 19.904L80.4037 19.904C79.6144 21.7386 78.3664 23.232 76.6597 24.384C74.9744 25.5146 73.097 26.08 71.0277 26.08C68.2117 26.08 65.8117 25.088 63.8277 23.104C61.8437 21.0986 60.8517 18.688 60.8517 15.872C60.8517 13.056 61.8437 10.656 63.8277 8.67196C65.8117 6.66662 68.2117 5.66396 71.0277 5.66396ZM101.761 15.872L101.761 26.08L98.3689 26.08L98.3689 23.456C96.4489 25.2053 94.1769 26.08 91.5529 26.08C88.7369 26.08 86.3263 25.088 84.3209 23.104C82.3369 21.0986 81.3449 18.688 81.3449 15.872C81.3449 13.056 82.3369 10.656 84.3209 8.67196C86.3263 6.66662 88.7369 5.66396 91.5529 5.66396C94.3689 5.66396 96.7689 6.66662 98.7529 8.67196C100.758 10.656 101.761 13.056 101.761 15.872ZM91.5529 9.05596C89.6756 9.05596 88.0756 9.72796 86.7529 11.072C85.4303 12.3946 84.7689 13.9946 84.7689 15.872C84.7689 17.7493 85.4303 19.3493 86.7529 20.672C88.0756 21.9946 89.6756 22.656 91.5529 22.656C93.4303 22.656 95.0303 21.9946 96.3529 20.672C97.6969 19.3493 98.3689 17.7493 98.3689 15.872C98.3689 13.9733 97.7076 12.3626 96.3849 11.04C95.0623 9.71729 93.4516 9.05596 91.5529 9.05596ZM105.794 6.78396L105.794 6.81596C105.794 4.93862 106.455 3.33862 107.778 2.01596C109.122 0.671957 110.733 -4.3869e-05 112.61 -4.3869e-05L113.73 -4.3869e-05L113.73 3.39196L112.61 3.39196C111.671 3.39196 110.871 3.72262 110.21 4.38396C109.549 5.04529 109.218 5.84529 109.218 6.78396L113.73 6.78396L113.73 10.176L109.218 10.176L109.218 26.08L105.794 26.08L105.794 10.176L103.522 10.176L103.522 6.78396L105.794 6.78396ZM117.211 8.67196C119.217 6.66662 121.627 5.66396 124.443 5.66396C127.259 5.66396 129.659 6.66662 131.643 8.67196C133.649 10.656 134.651 13.056 134.651 15.872C134.651 16.4053 134.598 16.9706 134.491 17.568L117.851 17.568C118.235 19.0613 119.035 20.288 120.251 21.248C121.467 22.1866 122.865 22.656 124.443 22.656C126.427 22.656 128.081 21.9413 129.403 20.512L133.531 20.512C132.678 22.1973 131.43 23.552 129.787 24.576C128.166 25.5786 126.385 26.08 124.443 26.08C121.627 26.08 119.217 25.088 117.211 23.104C115.227 21.0986 114.235 18.688 114.235 15.872C114.235 13.056 115.227 10.656 117.211 8.67196ZM117.851 14.176L131.035 14.176C130.673 12.6826 129.873 11.456 128.635 10.496C127.419 9.53596 126.022 9.05596 124.443 9.05596C122.865 9.05596 121.457 9.53596 120.219 10.496C119.003 11.456 118.214 12.6826 117.851 14.176Z" fill="#FFFFFF" fill-opacity="1.000000" fill-rule="evenodd"/>
</svg>
