<svg width="22.000000" height="17.000000" viewBox="0 0 22 17" fill="none" xmlns="http://www.w3.org/2000/svg" xmlns:xlink="http://www.w3.org/1999/xlink">
	<desc>
			Created with Pixso.
	</desc>
	<defs/>
	<path id="Vector" d="M11 17C9.6499 16.15 7.19995 15.5 5.5 15.5C3.8501 15.5 2.1499 15.8 0.75 16.55C0.649902 16.6 0.600098 16.6 0.5 16.6C0.25 16.6 0 16.35 0 16.1L0 1.5C0.600098 1.05005 1.25 0.75 2 0.5C3.11011 0.150024 4.33008 0 5.5 0C7.44995 0 9.55005 0.400024 11 1.5C12.45 0.400024 14.55 0 16.5 0C17.6699 0 18.8899 0.150024 20 0.5C20.75 0.75 21.3999 1.05005 22 1.5L22 16.1C22 16.35 21.75 16.6 21.5 16.6C21.3999 16.6 21.3501 16.6 21.25 16.55C19.8501 15.8 18.1499 15.5 16.5 15.5C14.8 15.5 12.3501 16.15 11 17ZM10 3C8.63989 2.40002 6.84009 2 5.5 2C4.30005 2 3.1001 2.15002 2 2.5L2 14C3.1001 13.65 4.30005 13.5 5.5 13.5C6.84009 13.5 8.63989 13.9 10 14.5L10 3ZM12 14.5C13.3601 13.9 15.1599 13.5 16.5 13.5C17.7 13.5 18.8999 13.65 20 14L20 2.5C18.8999 2.15002 17.7 2 16.5 2C15.1599 2 13.3601 2.40002 12 3L12 14.5Z" fill="#FFFFFF" fill-opacity="1.000000" fill-rule="nonzero"/>
</svg>
