<svg width="135" height="27" viewBox="0 0 135 27" fill="none" xmlns="http://www.w3.org/2000/svg">
<path d="M0.174499 27V14.52C0.174499 12.344 0.953166 10.4773 2.5105 8.92C4.06783 7.36267 5.9345 6.584 8.1105 6.584C10.3078 6.584 12.1745 7.36267 13.7105 8.92C15.2678 10.456 16.0465 12.3227 16.0465 14.52V27H12.6545V14.52C12.6545 13.2827 12.2065 12.216 11.3105 11.32C10.4145 10.424 9.34783 9.976 8.1105 9.976C6.87317 9.976 5.8065 10.424 4.9105 11.32C4.0145 12.216 3.5665 13.2827 3.5665 14.52V27H0.174499ZM20.986 9.592C22.9913 7.58667 25.402 6.584 28.218 6.584C31.034 6.584 33.434 7.58667 35.418 9.592C37.4233 11.576 38.426 13.976 38.426 16.792C38.426 17.3253 38.3727 17.8907 38.266 18.488H21.626C22.01 19.9813 22.81 21.208 24.026 22.168C25.242 23.1067 26.6393 23.576 28.218 23.576C30.202 23.576 31.8553 22.8613 33.178 21.432H37.306C36.4527 23.1173 35.2047 24.472 33.562 25.496C31.9407 26.4987 30.1593 27 28.218 27C25.402 27 22.9913 26.008 20.986 24.024C19.002 22.0187 18.01 19.608 18.01 16.792C18.01 13.976 19.002 11.576 20.986 9.592ZM21.626 15.096H34.81C34.4473 13.6027 33.6473 12.376 32.41 11.416C31.194 10.456 29.7967 9.976 28.218 9.976C26.6393 9.976 25.2313 10.456 23.994 11.416C22.778 12.376 21.9887 13.6027 21.626 15.096ZM42.2575 9.592C44.2628 7.58667 46.6735 6.584 49.4895 6.584C52.3055 6.584 54.7055 7.58667 56.6895 9.592C58.6948 11.576 59.6975 13.976 59.6975 16.792C59.6975 19.608 58.6948 22.0187 56.6895 24.024C54.7055 26.008 52.3055 27 49.4895 27C46.6735 27 44.2628 26.008 42.2575 24.024C40.2735 22.0187 39.2815 19.608 39.2815 16.792C39.2815 13.976 40.2735 11.576 42.2575 9.592ZM54.2895 11.992C52.9668 10.648 51.3668 9.976 49.4895 9.976C47.6122 9.976 46.0015 10.648 44.6575 11.992C43.3348 13.3147 42.6735 14.9147 42.6735 16.792C42.6735 18.6693 43.3348 20.2693 44.6575 21.592C46.0015 22.9147 47.6122 23.576 49.4895 23.576C51.3668 23.576 52.9668 22.9147 54.2895 21.592C55.6335 20.2693 56.3055 18.6693 56.3055 16.792C56.3055 14.9147 55.6335 13.3147 54.2895 11.992Z" fill="#2A3440"/>
<path d="M71.2023 6.584C73.1009 6.584 74.8503 7.07467 76.4503 8.056C78.0716 9.016 79.3196 10.296 80.1943 11.896H75.9703C74.6476 10.616 73.0583 9.976 71.2023 9.976C69.3249 9.976 67.7249 10.648 66.4023 11.992C65.0796 13.3147 64.4183 14.9147 64.4183 16.792C64.4183 18.6693 65.0796 20.2693 66.4023 21.592C67.7249 22.9147 69.3249 23.576 71.2023 23.576C72.3116 23.576 73.3463 23.3307 74.3063 22.84C75.2663 22.3493 76.0556 21.6773 76.6743 20.824H80.5783C79.7889 22.6587 78.5409 24.152 76.8343 25.304C75.1489 26.4347 73.2716 27 71.2023 27C68.3863 27 65.9863 26.008 64.0023 24.024C62.0183 22.0187 61.0263 19.608 61.0263 16.792C61.0263 13.976 62.0183 11.576 64.0023 9.592C65.9863 7.58667 68.3863 6.584 71.2023 6.584ZM101.936 16.792V27H98.5435V24.376C96.6235 26.1253 94.3515 27 91.7275 27C88.9115 27 86.5008 26.008 84.4955 24.024C82.5115 22.0187 81.5195 19.608 81.5195 16.792C81.5195 13.976 82.5115 11.576 84.4955 9.592C86.5008 7.58667 88.9115 6.584 91.7275 6.584C94.5435 6.584 96.9435 7.58667 98.9275 9.592C100.933 11.576 101.936 13.976 101.936 16.792ZM91.7275 9.976C89.8502 9.976 88.2502 10.648 86.9275 11.992C85.6048 13.3147 84.9435 14.9147 84.9435 16.792C84.9435 18.6693 85.6048 20.2693 86.9275 21.592C88.2502 22.9147 89.8502 23.576 91.7275 23.576C93.6048 23.576 95.2048 22.9147 96.5275 21.592C97.8715 20.2693 98.5435 18.6693 98.5435 16.792C98.5435 14.8933 97.8822 13.2827 96.5595 11.96C95.2368 10.6373 93.6262 9.976 91.7275 9.976ZM105.969 7.704V7.736C105.969 5.85866 106.63 4.25867 107.953 2.936C109.297 1.592 110.907 0.919998 112.785 0.919998H113.905V4.312H112.785C111.846 4.312 111.046 4.64267 110.385 5.304C109.723 5.96533 109.393 6.76533 109.393 7.704H113.905V11.096H109.393V27H105.969V11.096H103.697V7.704H105.969ZM117.386 9.592C119.391 7.58667 121.802 6.584 124.618 6.584C127.434 6.584 129.834 7.58667 131.818 9.592C133.823 11.576 134.826 13.976 134.826 16.792C134.826 17.3253 134.773 17.8907 134.666 18.488H118.026C118.41 19.9813 119.21 21.208 120.426 22.168C121.642 23.1067 123.039 23.576 124.618 23.576C126.602 23.576 128.255 22.8613 129.578 21.432H133.706C132.853 23.1173 131.605 24.472 129.962 25.496C128.341 26.4987 126.559 27 124.618 27C121.802 27 119.391 26.008 117.386 24.024C115.402 22.0187 114.41 19.608 114.41 16.792C114.41 13.976 115.402 11.576 117.386 9.592ZM118.026 15.096H131.21C130.847 13.6027 130.047 12.376 128.81 11.416C127.594 10.456 126.197 9.976 124.618 9.976C123.039 9.976 121.631 10.456 120.394 11.416C119.178 12.376 118.389 13.6027 118.026 15.096Z" fill="#F47356"/>
</svg>
