<svg width="20.000000" height="20.000000" viewBox="0 0 20 20" fill="none" xmlns="http://www.w3.org/2000/svg" xmlns:xlink="http://www.w3.org/1999/xlink">
	<desc>
			Created with Pixso.
	</desc>
	<defs/>
	<path id="Vector" d="M5 12.9399L11.0601 6.88L13.1201 8.93994L7.06006 15L5 15L5 12.9399ZM10 18C12.1218 18 14.1565 17.1571 15.6567 15.6569C17.1572 14.1566 18 12.1217 18 10C18 7.8783 17.1572 5.84338 15.6567 4.34314C14.1565 2.8429 12.1218 2 10 2C7.87817 2 5.84351 2.8429 4.34326 4.34314C2.84277 5.84338 2 7.8783 2 10C2 12.1217 2.84277 14.1566 4.34326 15.6569C5.84351 17.1571 7.87817 18 10 18ZM14.7 7.34998L13.7 8.34998L11.6499 6.30005L12.6499 5.30005C12.8601 5.07996 13.21 5.07996 13.4199 5.30005L14.7 6.57996C14.9199 6.79004 14.9199 7.14001 14.7 7.34998ZM10 0C11.3132 0 12.6135 0.258667 13.8269 0.76123C15.04 1.26379 16.1426 2.00037 17.071 2.92896C17.9998 3.85754 18.7363 4.95996 19.2388 6.17322C19.7415 7.38647 20 8.68677 20 10C20 12.6522 18.9465 15.1957 17.071 17.071C15.1958 18.9464 12.6521 20 10 20C8.68677 20 7.38647 19.7413 6.1731 19.2388C4.95996 18.7362 3.85742 17.9996 2.92896 17.071C1.05347 15.1957 0 12.6522 0 10C0 7.34778 1.05347 4.80432 2.92896 2.92896C4.8042 1.05359 7.3479 0 10 0Z" fill="#FFFFFF" fill-opacity="1.000000" fill-rule="nonzero"/>
</svg>
