<svg width="16.000000" height="16.000000" viewBox="0 0 16 16" fill="none" xmlns="http://www.w3.org/2000/svg" xmlns:xlink="http://www.w3.org/1999/xlink">
	<desc>
			Created with Pixso.
	</desc>
	<defs/>
	<path id="Vector" d="M8 0C9.06079 0 10.0784 0.421387 10.8284 1.17163C11.5786 1.92175 12 2.93909 12 4C12 5.06091 11.5786 6.07825 10.8284 6.82837C10.0784 7.57861 9.06079 8 8 8C6.93921 8 5.92163 7.57861 5.17163 6.82837C4.42139 6.07825 4 5.06091 4 4C4 2.93909 4.42139 1.92175 5.17163 1.17163C5.92163 0.421387 6.93921 0 8 0ZM8 2C7.46948 2 6.96094 2.21069 6.58569 2.58582C6.21069 2.96082 6 3.4696 6 4C6 4.5304 6.21069 5.03918 6.58569 5.41418C6.96094 5.78931 7.46948 6 8 6C8.53052 6 9.03906 5.78931 9.41431 5.41418C9.78931 5.03918 10 4.5304 10 4C10 3.4696 9.78931 2.96082 9.41431 2.58582C9.03906 2.21069 8.53052 2 8 2ZM8 9C10.6699 9 16 10.33 16 13L16 16L0 16L0 13C0 10.33 5.33008 9 8 9ZM8 10.9C5.03003 10.9 1.8999 12.36 1.8999 13L1.8999 14.1L14.1001 14.1L14.1001 13C14.1001 12.36 10.97 10.9 8 10.9Z" fill="#FFFFFF" fill-opacity="1.000000" fill-rule="nonzero"/>
</svg>
