<svg xmlns="http://www.w3.org/2000/svg" xmlns:xlink="http://www.w3.org/1999/xlink" version="1.1" x="0px" y="0px" viewBox="0 0 512 640" style="enable-background:new 0 0 512 512;" xml:space="preserve"><g><g><path d="M116,276c0,77.196,62.804,140,140,140s140-62.804,140-140s-62.804-140-140-140S116,198.804,116,276z M256,156    c62.8,0,114.481,48.493,119.58,110H356c-5.522,0-10,4.478-10,10s4.478,10,10,10h19.58c-1.846,22.268-9.797,42.827-22.172,60    h-67.436c4.377-5.816,7.516-12.614,9.021-20H296c16.542,0,30-13.458,30-30s-13.458-30-30-30c-7.231,0-77.861,0-90,0    c-5.523,0-10,4.478-10,10v40c0,11.247,3.735,21.638,10.027,30H196c-5.523,0-10,4.478-10,10s4.477,10,10,10h139.278    c-21.157,18.66-48.917,30-79.278,30c-62.801,0-114.481-48.494-119.58-110H166c5.523,0,10-4.478,10-10s-4.477-10-10-10h-29.58    C141.519,204.493,193.199,156,256,156z M216,316v-30h60v30c0,16.542-13.458,30-30,30S216,332.542,216,316z M306,296    c0,5.514-4.486,10-10,10v-20C301.514,286,306,290.486,306,296z"/><path d="M66,86c16.542,0,30-13.458,30-30S82.542,26,66,26S36,39.458,36,56S49.458,86,66,86z M66,46c5.514,0,10,4.486,10,10    s-4.486,10-10,10s-10-4.486-10-10S60.486,46,66,46z"/><path d="M456,106c16.542,0,30-13.458,30-30s-13.458-30-30-30s-30,13.458-30,30S439.458,106,456,106z M456,66    c5.514,0,10,4.486,10,10s-4.486,10-10,10s-10-4.486-10-10S450.486,66,456,66z"/><circle cx="466" cy="146" r="10"/><circle cx="386" cy="56" r="10"/><circle cx="126" cy="56" r="10"/><circle cx="46" cy="426" r="10"/><circle cx="76" cy="476" r="10"/><circle cx="456" cy="466" r="10"/><circle cx="466" cy="416" r="10"/><circle cx="46" cy="126" r="10"/><path d="M495.926,320.453c-13.391-4.497-27.92-5.852-42.302-3.704c0.656-4.254,1.176-8.535,1.559-12.828    c33.171-17.918,52.504-55.022,41.488-89.035c-1.569-4.845-6.529-7.74-11.519-6.716c-14.059,2.876-27.243,9.121-38.308,17.904    c-1.476-4.713-3.118-9.366-4.932-13.933c14.547-34.601,6.428-74.621-22.358-94.268c-4.209-2.872-9.905-2.122-13.225,1.745    c-5.394,6.281-9.856,13.274-13.33,20.693c-5.169-4.859-10.6-9.447-16.253-13.736c-5.662-46.953-46.667-81.794-87.926-74.304    c-5.007,0.909-8.533,5.433-8.191,10.511c3.114,46.273,41.642,84.167,83.911,79.638c7.662,5.801,14.87,12.215,21.505,19.144    c-5.81,29.9,4.121,60.195,27.82,76.369c4.233,2.89,9.92,2.097,13.219-1.74c0.485-0.564,0.942-1.15,1.413-1.726    c0.814,2.737,1.567,5.495,2.252,8.271c-15.056,20.424-18.502,43.783-12.078,63.586c1.566,4.829,6.508,7.73,11.514,6.713    c1.313-0.269,2.616-0.572,3.912-0.898c-0.517,3.56-1.145,7.097-1.871,10.604c-21.189,8.976-38.123,26.444-43.049,49.277    c-1.074,4.979,1.767,9.97,6.596,11.59c3.188,1.068,6.43,1.943,9.71,2.649c-2.434,3.62-4.998,7.154-7.686,10.588    c-31.793-6.796-61.413,4.544-76.969,26.549c-2.94,4.16-2.284,9.866,1.525,13.249c36.446,32.371,93.154,30.16,118.424-5.669    c2.934-4.16,2.274-9.86-1.531-13.24c-6.441-5.721-13.722-10.463-21.485-14.131c3.611-4.962,6.992-10.092,10.13-15.354    c35.397-1.238,67.535-23.137,74.628-56.222C503.587,327.055,500.748,322.072,495.926,320.453z M322.871,108.27    c-10.553-9.613-17.899-22.721-20.914-36.958c11.624,0.51,23.27,5.605,33,14.483c10.552,9.612,17.898,22.72,20.914,36.958    C344.247,122.243,332.601,117.147,322.871,108.27z M417.869,215.152c-7.882-8.469-12.641-20.211-13.353-33.443    c-0.729-13.583,2.868-28.254,11.038-41.047c15.986,17.188,17.034,44.666,6.688,66.557    C421.936,207.786,420.63,210.832,417.869,215.152z M479.56,230.451c1.045,11.523-2.388,23.726-9.94,34.64    c-8.108,11.74-20.12,20.774-33.838,25.67c-1.043-11.506,2.389-23.702,9.935-34.614C453.488,244.913,465.32,235.544,479.56,230.451    z M343.553,427.765c19.296-17.363,51.091-16.6,74.504-1.144C398.912,443.867,367.129,443.317,343.553,427.765z M411.793,367.14    c10.996-23.637,40.766-35.248,68.122-30.218C468.942,360.564,439.152,372.158,411.793,367.14z"/><path d="M114.204,396.849c-2.688-3.435-5.253-6.969-7.687-10.59c3.28-0.707,6.522-1.581,9.709-2.65    c4.83-1.619,7.67-6.61,6.595-11.59c-4.833-22.397-21.358-40.068-43.049-49.277c-0.727-3.507-1.354-7.044-1.872-10.604    c1.296,0.326,2.599,0.631,3.912,0.899c5.006,1.023,9.952-1.888,11.516-6.712c6.972-21.495,1.847-44.668-12.077-63.588    c0.685-2.775,1.437-5.532,2.251-8.269c0.471,0.576,0.928,1.162,1.414,1.727c3.311,3.849,9,4.618,13.219,1.739    c23.876-16.296,33.583-46.696,27.824-76.374c6.635-6.929,13.845-13.344,21.51-19.147c42.114,4.515,80.756-33.179,83.933-79.626    c0.348-5.082-3.18-9.613-8.192-10.522c-41.538-7.532-82.318,27.668-87.947,74.304c-5.655,4.289-11.087,8.877-16.255,13.736    c-3.476-7.422-7.943-14.416-13.342-20.692c-3.322-3.863-9.019-4.609-13.225-1.734c-28.891,19.751-36.808,59.859-22.353,94.262    c-1.813,4.564-3.454,9.213-4.929,13.924c-11.059-8.779-24.246-15.02-38.315-17.895c-4.986-1.02-9.947,1.873-11.516,6.717    c-10.884,33.61,7.876,70.852,41.489,89.026c0.382,4.296,0.902,8.579,1.558,12.835c-13.892-2.074-28.447-0.94-42.297,3.704    c-4.83,1.62-7.67,6.611-6.595,11.591c7.143,33.107,39.265,54.971,74.626,56.208c3.138,5.264,6.52,10.394,10.131,15.355    c-7.765,3.668-15.045,8.409-21.486,14.13c-3.806,3.381-4.465,9.08-1.531,13.24c25.342,35.932,82.056,37.971,118.422,5.669    c3.806-3.381,4.465-9.08,1.531-13.24C174.331,399.52,143.448,390.601,114.204,396.849z M177.083,85.782    c9.723-8.872,21.365-13.967,32.982-14.478c-5.836,27.442-28.132,50.316-53.925,51.442    C159.158,108.519,166.514,95.41,177.083,85.782z M96.456,140.663c15.084,23.609,15.294,55.559-2.325,74.489    C79.002,191.479,78.931,159.533,96.456,140.663z M32.443,230.449c14.555,5.2,26.331,14.823,33.844,25.703    c7.551,10.897,10.982,23.089,9.934,34.606C50.311,281.496,30.078,256.628,32.443,230.449z M32.098,336.921    c27.723-5.089,57.252,6.885,68.109,30.219C72.762,372.18,43.046,360.453,32.098,336.921z M93.945,426.621    c24.667-16.283,56.208-15.348,74.509,1.138C156.425,435.699,113.097,443.873,93.945,426.621z"/><path d="M306,436c-5.522,0-10,4.478-10,10v6.667c0,3.676-2.991,6.666-6.667,6.666s-6.666-2.99-6.666-6.666V446    c0-5.522-4.478-10-10-10s-10,4.478-10,10v6.667c0,3.676-2.991,6.666-6.667,6.666s-6.667-2.99-6.667-6.666V446    c0-5.522-4.477-10-10-10s-10,4.478-10,10v6.667c0,3.676-2.991,6.666-6.667,6.666c-3.676,0-6.667-2.99-6.667-6.666V446    c0-5.522-4.477-10-10-10s-10,4.478-10,10v6.667c0,14.704,11.962,26.666,26.667,26.666c6.303,0,12.098-2.202,16.667-5.872    c9.745,7.827,23.575,7.838,33.333,0c4.568,3.67,10.363,5.872,16.666,5.872c14.704,0,26.667-11.962,26.667-26.666V446    C316,440.478,311.522,436,306,436z"/><path d="M276,256c5.522,0,10-4.477,10-10c0-3.166,2.018-5.965,5.021-6.966l13.783-4.595c11.183-3.727,18.696-14.151,18.696-25.939    c0-5.523-4.478-10-10-10s-10,4.477-10,10c0,3.166-2.018,5.965-5.021,6.966l-13.783,4.595C273.514,223.788,266,234.212,266,246    C266,251.523,270.478,256,276,256z"/><path d="M216,256c5.523,0,10-4.477,10-10c0-3.166,2.018-5.965,5.021-6.966l13.783-4.595c11.183-3.727,18.696-14.151,18.696-25.939    c0-5.523-4.478-10-10-10c-5.523,0-10,4.477-10,10c0,3.166-2.018,5.965-5.021,6.966l-13.783,4.595    C213.514,223.788,206,234.212,206,246C206,251.523,210.477,256,216,256z"/></g></g><text x="0" y="527" fill="#000000" font-size="5px" font-weight="bold" font-family="'Helvetica Neue', Helvetica, Arial-Unicode, Arial, Sans-serif">Created by Flatart</text><text x="0" y="532" fill="#000000" font-size="5px" font-weight="bold" font-family="'Helvetica Neue', Helvetica, Arial-Unicode, Arial, Sans-serif">from the Noun Project</text></svg>